<svg xmlns="http://www.w3.org/2000/svg" viewBox="0 -0.5 512 256" shape-rendering="crispEdges">
<metadata>Made with Pixels to Svg https://codepen.io/shshaw/pen/XbxvNj</metadata>
<path stroke="#73c5ff" d="M95 4h4M95 5h1M98 5h1M93 6h3M98 6h1M93 7h1M98 7h1M93 8h1M98 8h1M93 9h1M98 9h1M91 10h3M98 10h1M91 11h1M98 11h1M73 12h19M98 12h1M73 13h1M98 13h1M67 14h7M98 14h3M67 15h1M100 15h1M61 16h7M100 16h7M61 17h1M106 17h1M57 18h5M106 18h5M57 19h1M110 19h1M55 20h3M110 20h3M55 21h1M112 21h1M51 22h5M112 22h5M51 23h1M116 23h1M49 24h3M116 24h3M49 25h1M76 25h10M90 25h2M118 25h1M47 26h3M76 26h1M83 26h3M90 26h2M118 26h3M47 27h1M70 27h7M83 27h1M88 27h4M120 27h1M45 28h3M70 28h1M83 28h1M88 28h1M91 28h1M120 28h3M45 29h1M64 29h7M83 29h1M88 29h1M91 29h1M98 29h6M122 29h1M43 30h3M64 30h1M81 30h3M88 30h4M98 30h1M103 30h1M122 30h3M43 31h1M62 31h3M81 31h1M86 31h4M98 31h1M103 31h3M124 31h1M41 32h3M62 32h1M81 32h1M86 32h1M89 32h1M98 32h1M105 32h1M124 32h3M41 33h1M58 33h5M81 33h1M86 33h1M89 33h1M98 33h1M105 33h5M126 33h1M39 34h3M58 34h1M81 34h1M86 34h1M89 34h1M98 34h1M109 34h1M126 34h3M39 35h1M56 35h3M81 35h1M84 35h3M89 35h1M98 35h1M109 35h3M128 35h1M37 36h3M56 36h1M79 36h3M84 36h1M89 36h1M98 36h1M111 36h1M128 36h3M37 37h1M54 37h3M79 37h1M84 37h1M89 37h1M98 37h1M111 37h3M130 37h1M37 38h1M54 38h1M63 38h6M79 38h1M84 38h1M89 38h1M98 38h1M113 38h1M130 38h1M37 39h1M52 39h3M63 39h1M68 39h1M79 39h1M84 39h1M89 39h1M98 39h1M113 39h3M130 39h1M35 40h3M52 40h1M63 40h1M68 40h3M77 40h3M84 40h1M89 40h1M98 40h1M115 40h1M130 40h3M35 41h1M50 41h3M63 41h1M70 41h1M77 41h1M82 41h3M89 41h1M98 41h1M115 41h3M132 41h1M35 42h1M50 42h1M63 42h1M70 42h5M77 42h1M82 42h1M87 42h3M98 42h3M117 42h1M132 42h1M35 43h1M48 43h3M63 43h3M74 43h1M77 43h1M82 43h1M87 43h1M100 43h1M117 43h3M132 43h1M33 44h3M48 44h1M65 44h1M74 44h4M82 44h1M87 44h1M100 44h1M119 44h1M132 44h3M33 45h1M48 45h1M65 45h1M80 45h3M87 45h1M100 45h1M119 45h1M134 45h1M33 46h1M48 46h1M65 46h1M80 46h1M87 46h1M100 46h1M107 46h8M119 46h1M134 46h1M33 47h1M46 47h3M65 47h1M80 47h1M87 47h1M100 47h1M107 47h1M114 47h1M119 47h3M134 47h1M31 48h3M46 48h1M65 48h1M80 48h1M87 48h1M100 48h8M114 48h1M121 48h1M134 48h3M31 49h1M46 49h1M65 49h1M78 49h3M87 49h1M112 49h3M121 49h1M136 49h1M31 50h1M46 50h1M65 50h1M78 50h1M87 50h1M112 50h1M121 50h1M136 50h1M31 51h1M44 51h3M65 51h3M78 51h1M87 51h1M110 51h3M121 51h3M136 51h1M31 52h1M44 52h1M49 52h19M78 52h1M85 52h3M110 52h1M123 52h1M136 52h1M31 53h1M44 53h1M49 53h1M76 53h3M85 53h1M110 53h1M123 53h1M136 53h1M21 54h11M44 54h6M76 54h1M85 54h1M110 54h1M123 54h1M136 54h3M21 55h1M76 55h1M85 55h1M108 55h3M123 55h1M138 55h1M21 56h1M76 56h3M85 56h1M108 56h1M123 56h1M138 56h1M21 57h3M78 57h1M85 57h1M106 57h3M123 57h3M138 57h1M23 58h1M78 58h3M85 58h1M106 58h3M125 58h1M138 58h1M23 59h5M80 59h1M85 59h1M108 59h1M125 59h1M138 59h1M27 60h1M80 60h1M85 60h1M108 60h5M125 60h1M138 60h1M27 61h3M49 61h5M80 61h1M85 61h1M94 61h10M112 61h1M125 61h1M138 61h1M29 62h1M53 62h1M80 62h3M85 62h1M94 62h1M103 62h1M112 62h5M125 62h1M138 62h1M29 63h1M53 63h11M82 63h1M85 63h1M92 63h3M103 63h5M116 63h1M125 63h1M138 63h1M29 64h1M49 64h2M63 64h1M82 64h4M92 64h1M107 64h1M116 64h5M125 64h1M138 64h1M50 65h1M63 65h6M120 65h1M125 65h1M138 65h1M50 66h1M120 66h6M138 66h1M124 67h2M138 67h1M124 68h2M138 68h1M49 69h1M120 69h2M138 69h1M49 70h1M60 70h5M121 70h1M138 70h1M49 71h2M64 71h1M121 71h5M138 71h1M64 72h5M120 72h1M125 72h1M138 72h1M68 73h1M120 73h1M125 73h1M138 73h1M68 74h1M120 74h6M138 74h3M60 75h4M140 75h1M61 76h3M61 77h1M60 78h2M29 79h3M82 79h1M91 79h1M31 80h1M82 80h1M91 80h1M31 81h1M82 81h1M91 81h1M116 81h8M136 81h1M31 82h1M82 82h1M91 82h1M121 82h3M136 82h1M31 83h1M82 83h1M91 83h1M121 83h1M136 83h1M31 84h1M56 84h2M82 84h1M89 84h3M121 84h1M136 84h1M31 85h1M64 85h6M82 85h1M89 85h1M121 85h1M134 85h3M64 86h1M69 86h1M82 86h1M89 86h1M119 86h3M134 86h1M63 87h2M69 87h1M80 87h3M89 87h1M119 87h1M69 88h1M80 88h1M87 88h3M119 88h1M69 89h1M80 89h1M87 89h1M119 89h1M132 89h1M69 90h1M80 90h1M87 90h1M117 90h3M132 90h1M69 91h1M80 91h1M87 91h1M117 91h1M132 91h1M69 92h1M80 92h1M85 92h3M115 92h3M132 92h1M69 93h1M80 93h1M85 93h1M90 93h2M115 93h1M130 93h3M69 94h1M80 94h1M85 94h1M90 94h1M113 94h3M130 94h1M69 95h1M80 95h1M85 95h1M90 95h1M113 95h1M130 95h1M69 96h1M80 96h1M83 96h3M90 96h1M106 96h1M111 96h3M130 96h1M69 97h1M80 97h1M83 97h1M88 97h3M105 97h2M111 97h1M128 97h3M128 98h1M126 99h3M62 101h1M62 102h3M64 103h1M64 104h2M112 112h1M110 113h3M110 114h1M106 115h5M106 116h1M64 117h4M101 117h6M67 118h1M67 119h5M71 120h1M71 121h1M78 121h14M71 122h1M78 122h1M71 123h1M76 123h3M71 124h1M76 124h1M71 125h1M76 125h1M71 126h1M76 126h1M71 127h1M74 127h3M71 128h1M74 128h1M71 129h4" />
<path stroke="#3388bb" d="M96 5h2M96 6h2M94 7h4M94 8h4M94 9h4M94 10h4M92 11h6M92 12h6M92 13h6M92 14h6M90 15h8M90 16h8M90 17h2M94 17h4M90 18h2M94 18h4M88 19h4M94 19h4M88 20h4M94 20h4M88 21h2M94 21h4M88 22h2M94 22h4M86 23h4M92 23h6M86 24h4M92 24h6M86 25h4M92 25h6M86 26h4M92 26h6M84 27h4M92 27h6M84 28h4M92 28h6M84 29h4M92 29h6M84 30h4M92 30h6M82 31h4M90 31h8M82 32h4M90 32h8M82 33h4M90 33h8M82 34h4M90 34h8M82 35h2M90 35h8M82 36h2M90 36h8M80 37h4M90 37h8M80 38h4M90 38h8M64 39h4M80 39h4M90 39h8M64 40h4M80 40h4M90 40h8M64 41h6M78 41h4M90 41h8M64 42h6M78 42h4M90 42h8M66 43h8M78 43h4M88 43h12M66 44h8M78 44h4M88 44h12M66 45h14M88 45h12M66 46h14M88 46h12M66 47h14M88 47h12M108 47h6M66 48h14M88 48h12M108 48h6M66 49h12M88 49h24M66 50h12M88 50h24M68 51h10M88 51h22M68 52h10M88 52h22M50 53h26M86 53h24M50 54h26M86 54h24M22 55h54M86 55h22M22 56h54M86 56h22M24 57h54M86 57h20M24 58h54M86 58h20M28 59h8M48 59h32M86 59h22M28 60h8M48 60h32M86 60h22M32 61h7M54 61h26M86 61h8M104 61h8M32 62h7M54 62h26M86 62h8M104 62h8M36 63h3M64 63h18M86 63h6M108 63h8M36 64h3M64 64h18M86 64h6M108 64h8M49 65h1M119 65h1M49 66h1M119 66h1M49 67h2M120 67h4M49 68h2M120 68h4M50 69h1M122 69h8M50 70h1M122 70h8M60 71h4M126 71h8M60 72h4M126 72h8M60 73h8M132 73h6M60 74h8M132 74h6M64 75h5M120 75h10M134 75h6M64 76h5M120 76h10M134 76h3M62 77h8M120 77h17M62 78h8M120 78h17M60 79h22M92 79h11M116 79h21M60 80h22M92 80h11M116 80h21M60 81h22M92 81h11M60 82h22M92 82h7M60 83h22M92 83h7M58 84h24M92 84h7M56 85h8M70 85h12M90 85h9M56 86h8M70 86h12M90 86h9M70 87h10M90 87h2M70 88h10M90 88h2M70 89h10M88 89h4M70 90h10M88 90h4M70 91h10M88 91h4M70 92h10M88 92h4M70 93h10M86 93h4M70 94h10M86 94h4M70 95h10M86 95h4M70 96h10M86 96h4M105 96h1M70 97h10M84 97h4M72 112h4M78 112h4M72 113h4M78 113h4M72 114h4M78 114h4M72 115h4M78 115h4M72 116h4M78 116h4M72 117h8M72 118h8M72 119h8M72 120h8M72 121h6M72 122h6M72 123h4M72 124h4M72 125h4M72 126h4M72 127h2M72 128h2M89 147h6M138 147h6M149 147h6M172 147h6M280 147h7M367 147h10M415 147h10M89 148h6M138 148h6M149 148h6M172 148h6M280 148h7M367 148h10M415 148h10M89 149h6M138 149h6M149 149h6M172 149h6M280 149h7M367 149h10M415 149h10M89 150h6M138 150h6M149 150h6M172 150h6M280 150h7M367 150h10M415 150h10M89 151h6M138 151h6M149 151h6M172 151h6M280 151h7M367 151h10M415 151h10M89 152h6M138 152h6M149 152h6M172 152h6M280 152h7M367 152h10M415 152h10M36 206h8M56 206h8M76 206h8M100 206h24M132 206h20M320 206h24M352 206h8M372 206h8M392 206h8M36 207h8M56 207h8M76 207h8M100 207h24M132 207h20M320 207h24M352 207h8M372 207h8M392 207h8M36 208h8M56 208h8M76 208h8M100 208h24M132 208h20M320 208h24M352 208h8M372 208h8M392 208h8" />
<path stroke="#308fbf" d="M74 13h18M74 14h18M68 15h22M98 15h2M68 16h22M98 16h2M62 17h28M92 17h2M98 17h8M62 18h28M92 18h2M98 18h8M58 19h30M92 19h2M98 19h12M58 20h30M92 20h2M98 20h12M56 21h32M90 21h4M98 21h14M56 22h32M90 22h4M98 22h14M52 23h34M90 23h2M98 23h18M52 24h34M90 24h2M98 24h18M50 25h26M98 25h20M50 26h26M98 26h20M48 27h22M98 27h22M48 28h22M98 28h22M46 29h18M104 29h18M46 30h18M104 30h18M44 31h18M106 31h18M44 32h18M106 32h18M42 33h16M110 33h16M42 34h16M110 34h16M40 35h16M112 35h16M40 36h16M112 36h16M38 37h16M114 37h16M38 38h16M114 38h16M38 39h14M116 39h14M38 40h14M116 40h14M36 41h14M118 41h14M36 42h14M118 42h14M36 43h12M120 43h12M36 44h12M120 44h12M34 45h14M120 45h14M34 46h14M120 46h14M34 47h12M122 47h12M34 48h12M122 48h12M32 49h14M122 49h14M32 50h14M122 50h14M32 51h12M124 51h12M32 52h12M124 52h12M32 53h12M124 53h12M32 54h12M124 54h12M124 55h14M124 56h14M126 57h12M126 58h12M36 59h3M126 59h12M36 60h3M126 60h12M30 61h2M126 61h12M30 62h2M126 62h12M30 63h6M126 63h12M30 64h6M126 64h12M36 65h3M126 65h12M36 66h3M126 66h12M37 67h2M126 67h12M37 68h2M126 68h12M37 69h2M130 69h8M37 70h2M130 70h8M134 71h4M134 72h4M126 73h6M126 74h6M130 75h4M130 76h4M124 81h12M124 82h12M122 83h14M122 84h14M122 85h12M122 86h12M120 87h13M120 88h13M120 89h12M120 90h12M118 91h14M118 92h14M116 93h14M116 94h14M114 95h16M114 96h16M112 97h16M126 98h2M52 101h10M52 102h10M52 103h12M55 104h9M55 105h11M56 106h10M56 107h10M56 108h10M56 109h10M59 110h8M59 111h8M60 112h12M76 112h2M82 112h10M101 112h11M60 113h12M76 113h2M82 113h10M101 113h9M60 114h12M76 114h2M82 114h10M101 114h9M63 115h9M76 115h2M82 115h10M101 115h5M63 116h9M76 116h2M82 116h10M101 116h5M68 117h4M80 117h12M68 118h4M80 118h12M80 119h12M80 120h12" />
<path stroke="#333333" d="M39 59h9M141 59h8M152 59h8M257 59h8M39 60h1M47 60h1M141 60h1M148 60h1M152 60h1M159 60h1M257 60h1M264 60h1M39 61h1M47 61h2M141 61h1M148 61h2M152 61h1M159 61h2M257 61h1M264 61h2M39 62h1M47 62h2M141 62h1M148 62h2M152 62h1M159 62h2M257 62h1M264 62h2M39 63h1M47 63h2M141 63h1M148 63h2M152 63h1M159 63h2M257 63h1M264 63h2M39 64h1M47 64h2M141 64h1M148 64h2M152 64h1M159 64h2M257 64h1M264 64h2M13 65h8M28 65h8M39 65h1M47 65h2M51 65h8M69 65h50M141 65h1M148 65h2M152 65h1M159 65h5M257 65h1M264 65h39M373 65h46M13 66h1M20 66h1M28 66h1M35 66h1M39 66h1M47 66h2M51 66h1M58 66h1M69 66h1M118 66h1M141 66h1M148 66h2M152 66h1M163 66h1M257 66h1M302 66h1M373 66h1M418 66h1M13 67h1M20 67h2M28 67h1M35 67h2M39 67h1M47 67h2M51 67h1M58 67h2M69 67h1M118 67h2M141 67h1M148 67h2M152 67h1M163 67h2M257 67h1M302 67h2M373 67h1M418 67h2M13 68h1M20 68h2M28 68h1M35 68h2M39 68h1M47 68h2M51 68h1M58 68h2M69 68h1M118 68h2M141 68h1M148 68h2M152 68h1M163 68h2M257 68h1M302 68h2M373 68h1M418 68h2M13 69h1M20 69h2M28 69h1M35 69h2M39 69h1M47 69h2M51 69h1M58 69h2M69 69h1M118 69h2M141 69h1M148 69h2M152 69h5M163 69h2M257 69h1M302 69h2M373 69h1M418 69h2M436 69h8M451 69h8M466 69h8M481 69h8M496 69h8M13 70h1M20 70h2M28 70h1M35 70h2M39 70h1M47 70h2M51 70h1M58 70h2M69 70h1M118 70h2M141 70h1M148 70h2M152 70h5M163 70h2M257 70h1M302 70h2M373 70h1M418 70h2M436 70h1M443 70h1M451 70h1M458 70h1M466 70h1M473 70h1M481 70h1M488 70h1M496 70h1M503 70h1M13 71h1M20 71h5M28 71h1M35 71h5M47 71h2M51 71h1M58 71h2M69 71h1M118 71h2M141 71h1M148 71h2M153 71h4M163 71h20M253 71h5M302 71h2M373 71h1M418 71h2M436 71h1M443 71h2M451 71h1M458 71h2M466 71h1M473 71h2M481 71h1M488 71h2M496 71h1M503 71h2M13 72h1M24 72h1M28 72h1M39 72h1M47 72h2M51 72h1M58 72h2M69 72h1M118 72h2M141 72h1M148 72h2M153 72h4M163 72h1M182 72h1M253 72h1M302 72h2M373 72h1M418 72h2M436 72h1M443 72h2M451 72h1M458 72h2M466 72h1M473 72h2M481 72h1M488 72h2M496 72h1M503 72h2M13 73h1M24 73h2M28 73h1M39 73h1M47 73h2M51 73h1M58 73h2M69 73h1M118 73h2M141 73h1M148 73h2M156 73h1M163 73h1M182 73h2M253 73h1M302 73h2M373 73h1M418 73h2M436 73h1M443 73h2M451 73h1M458 73h2M466 73h1M473 73h2M481 73h1M488 73h2M496 73h1M503 73h2M13 74h1M24 74h2M28 74h1M39 74h1M47 74h2M51 74h1M58 74h2M69 74h1M118 74h2M141 74h1M148 74h2M156 74h1M163 74h1M182 74h2M253 74h1M302 74h2M373 74h1M418 74h2M436 74h1M443 74h2M451 74h1M458 74h2M466 74h1M473 74h2M481 74h1M488 74h2M496 74h1M503 74h2M13 75h5M24 75h2M28 75h5M39 75h1M47 75h2M51 75h1M58 75h2M69 75h39M114 75h6M141 75h1M148 75h2M156 75h1M163 75h1M182 75h2M253 75h1M260 75h44M373 75h20M399 75h21M436 75h1M443 75h2M451 75h1M458 75h2M466 75h1M473 75h2M481 75h1M488 75h2M496 75h1M503 75h2M13 76h5M24 76h2M28 76h5M39 76h1M47 76h5M58 76h2M69 76h39M114 76h6M137 76h5M148 76h9M163 76h1M182 76h2M253 76h1M260 76h44M373 76h20M399 76h21M436 76h1M443 76h2M451 76h1M458 76h2M466 76h1M473 76h2M481 76h1M488 76h2M496 76h1M503 76h2M14 77h4M24 77h2M29 77h4M39 77h1M47 77h1M58 77h2M70 77h34M114 77h6M137 77h1M148 77h1M155 77h2M163 77h1M182 77h2M253 77h1M260 77h44M374 77h19M399 77h21M436 77h1M443 77h2M451 77h1M458 77h2M466 77h1M473 77h2M481 77h1M488 77h2M496 77h1M503 77h2M14 78h4M24 78h2M29 78h4M39 78h1M47 78h1M58 78h2M70 78h34M114 78h6M137 78h1M148 78h1M155 78h2M163 78h1M182 78h2M193 78h9M219 78h9M253 78h1M260 78h44M374 78h19M399 78h21M436 78h1M443 78h2M451 78h1M458 78h2M466 78h1M473 78h2M481 78h1M488 78h2M496 78h1M503 78h2M17 79h1M24 79h2M32 79h1M39 79h1M47 79h1M58 79h2M103 79h1M114 79h2M137 79h1M148 79h1M155 79h2M163 79h1M182 79h2M193 79h1M201 79h1M219 79h1M227 79h1M253 79h1M260 79h2M392 79h1M399 79h2M436 79h1M443 79h2M451 79h1M458 79h2M466 79h1M473 79h2M481 79h1M488 79h2M496 79h1M503 79h2M17 80h1M24 80h2M32 80h1M39 80h1M47 80h1M54 80h6M103 80h1M110 80h6M137 80h1M144 80h5M155 80h20M182 80h2M193 80h1M201 80h2M219 80h1M227 80h2M253 80h1M260 80h2M392 80h1M399 80h2M436 80h1M443 80h2M451 80h1M458 80h2M466 80h1M473 80h2M481 80h1M488 80h2M496 80h1M503 80h2M17 81h1M24 81h2M32 81h1M39 81h1M47 81h1M54 81h6M103 81h1M110 81h6M137 81h1M144 81h5M155 81h20M182 81h2M193 81h1M201 81h2M219 81h1M227 81h2M253 81h1M260 81h2M392 81h1M399 81h2M436 81h1M443 81h2M451 81h1M458 81h2M466 81h1M473 81h2M481 81h1M488 81h2M496 81h1M503 81h2M17 82h1M24 82h2M32 82h1M39 82h1M47 82h1M54 82h6M99 82h5M110 82h6M137 82h1M144 82h5M155 82h20M182 82h2M193 82h1M201 82h2M219 82h1M227 82h2M249 82h5M260 82h35M392 82h1M399 82h2M436 82h1M443 82h2M451 82h1M458 82h2M466 82h1M473 82h2M481 82h1M488 82h2M496 82h1M503 82h2M17 83h1M24 83h2M32 83h1M39 83h1M47 83h1M54 83h6M99 83h1M110 83h6M137 83h1M144 83h5M155 83h20M182 83h2M193 83h1M201 83h2M219 83h1M227 83h2M249 83h1M294 83h1M392 83h1M399 83h2M436 83h1M443 83h2M451 83h1M458 83h2M466 83h1M473 83h2M481 83h1M488 83h2M496 83h1M503 83h2M17 84h1M24 84h2M32 84h1M39 84h1M47 84h1M54 84h2M99 84h1M110 84h2M137 84h1M144 84h2M148 84h1M155 84h2M174 84h1M182 84h2M193 84h1M201 84h2M219 84h1M227 84h2M249 84h1M294 84h2M392 84h1M399 84h2M436 84h1M443 84h2M451 84h1M458 84h2M466 84h1M473 84h2M481 84h1M488 84h2M496 84h1M503 84h2M17 85h1M24 85h2M32 85h1M39 85h1M47 85h1M54 85h2M99 85h1M110 85h2M137 85h1M144 85h2M148 85h1M155 85h2M174 85h1M182 85h2M189 85h5M201 85h2M219 85h1M227 85h2M249 85h1M294 85h2M392 85h1M399 85h2M436 85h1M443 85h2M451 85h1M458 85h2M466 85h1M473 85h2M481 85h1M488 85h2M496 85h1M503 85h2M17 86h9M32 86h8M47 86h9M99 86h1M107 86h5M137 86h1M144 86h2M148 86h1M155 86h2M174 86h1M182 86h2M189 86h1M201 86h2M219 86h1M227 86h2M249 86h1M257 86h1M294 86h2M392 86h1M399 86h2M436 86h1M443 86h2M451 86h1M458 86h2M466 86h1M473 86h2M481 86h1M488 86h2M496 86h1M503 86h2M17 87h23M47 87h16M92 87h8M107 87h5M133 87h5M144 87h2M148 87h1M155 87h2M174 87h1M182 87h2M189 87h1M201 87h2M219 87h1M227 87h2M246 87h4M257 87h1M294 87h2M392 87h1M399 87h2M436 87h1M443 87h2M451 87h1M458 87h2M466 87h1M473 87h2M481 87h1M488 87h2M496 87h1M503 87h2M18 88h7M62 88h1M92 88h1M107 88h5M133 88h1M144 88h2M148 88h1M155 88h2M174 88h1M182 88h2M189 88h1M197 88h6M219 88h1M227 88h2M246 88h1M257 88h1M294 88h2M392 88h1M399 88h2M436 88h1M443 88h2M451 88h1M458 88h2M466 88h1M473 88h2M481 88h1M488 88h2M496 88h1M503 88h2M18 89h7M62 89h2M92 89h1M107 89h5M133 89h1M144 89h2M148 89h1M155 89h2M174 89h1M182 89h2M185 89h5M197 89h17M219 89h1M227 89h17M246 89h1M257 89h1M294 89h2M392 89h1M399 89h2M436 89h1M443 89h2M451 89h1M458 89h2M466 89h1M473 89h2M481 89h1M488 89h2M496 89h1M503 89h2M24 90h1M62 90h2M92 90h1M107 90h2M133 90h1M144 90h2M148 90h1M155 90h2M174 90h1M182 90h2M185 90h1M213 90h1M219 90h1M243 90h1M246 90h1M257 90h1M294 90h2M392 90h1M399 90h2M436 90h1M443 90h2M451 90h1M458 90h2M466 90h1M473 90h2M481 90h1M488 90h2M496 90h1M503 90h2M24 91h1M62 91h2M92 91h1M107 91h2M133 91h1M144 91h2M148 91h1M155 91h2M174 91h1M182 91h2M185 91h1M213 91h2M219 91h1M243 91h2M246 91h1M257 91h1M294 91h2M392 91h1M399 91h2M436 91h1M443 91h2M451 91h1M458 91h2M466 91h1M473 91h2M481 91h1M488 91h2M496 91h1M503 91h2M24 92h1M62 92h2M92 92h1M103 92h6M133 92h1M144 92h2M148 92h1M155 92h2M174 92h1M182 92h2M185 92h1M213 92h7M243 92h2M246 92h1M253 92h5M264 92h24M294 92h2M392 92h1M399 92h2M436 92h1M443 92h2M451 92h1M458 92h2M466 92h1M473 92h2M481 92h1M488 92h2M496 92h1M503 92h2M6 93h19M62 93h2M92 93h1M103 93h6M133 93h1M144 93h2M148 93h1M155 93h2M174 93h1M182 93h2M185 93h1M213 93h3M243 93h2M246 93h1M253 93h5M264 93h24M294 93h2M366 93h27M399 93h27M436 93h1M443 93h2M451 93h1M458 93h2M466 93h1M473 93h2M481 93h1M488 93h2M496 93h1M503 93h2M6 94h1M24 94h1M62 94h2M92 94h1M103 94h6M133 94h1M144 94h2M148 94h1M155 94h2M174 94h1M182 94h2M185 94h1M213 94h3M243 94h2M246 94h1M253 94h5M264 94h5M275 94h13M294 94h2M366 94h1M425 94h1M436 94h1M443 94h2M451 94h1M458 94h2M466 94h1M473 94h2M481 94h1M488 94h2M496 94h1M503 94h2M6 95h1M24 95h1M62 95h2M92 95h1M103 95h6M133 95h1M144 95h2M148 95h1M155 95h2M174 95h1M182 95h2M185 95h1M213 95h3M243 95h2M246 95h1M253 95h5M264 95h5M275 95h13M294 95h2M366 95h1M425 95h2M436 95h1M443 95h2M451 95h1M458 95h2M466 95h1M473 95h2M481 95h1M488 95h2M496 95h1M503 95h2M6 96h1M24 96h1M62 96h2M92 96h1M103 96h2M133 96h1M144 96h2M148 96h1M155 96h2M174 96h1M182 96h2M185 96h1M193 96h14M213 96h3M223 96h13M243 96h2M246 96h1M253 96h2M257 96h1M264 96h2M268 96h1M275 96h2M287 96h1M294 96h2M366 96h1M425 96h2M436 96h1M443 96h2M451 96h1M458 96h2M466 96h1M473 96h2M481 96h1M488 96h2M496 96h1M503 96h2M6 97h1M24 97h16M47 97h17M92 97h1M99 97h6M133 97h1M144 97h2M148 97h1M155 97h2M174 97h1M182 97h2M185 97h1M193 97h14M213 97h3M223 97h13M243 97h2M246 97h9M257 97h1M264 97h2M268 97h1M275 97h2M287 97h1M294 97h2M366 97h1M425 97h2M436 97h1M443 97h2M451 97h1M458 97h2M466 97h1M473 97h2M481 97h1M488 97h2M496 97h1M503 97h2M6 98h1M24 98h16M47 98h17M66 98h27M99 98h27M129 98h5M144 98h2M148 98h1M155 98h2M174 98h1M182 98h2M185 98h1M193 98h14M213 98h3M223 98h13M243 98h2M246 98h9M257 98h1M264 98h2M268 98h1M275 98h5M287 98h1M294 98h2M306 98h61M425 98h2M436 98h1M443 98h2M451 98h1M458 98h2M466 98h1M473 98h2M481 98h1M488 98h2M496 98h1M503 98h2M6 99h1M24 99h13M50 99h14M66 99h1M125 99h1M129 99h1M144 99h2M148 99h1M155 99h2M174 99h1M182 99h2M185 99h1M193 99h14M213 99h3M223 99h13M243 99h2M247 99h8M257 99h1M264 99h2M268 99h1M279 99h1M287 99h1M294 99h2M306 99h1M365 99h2M425 99h2M436 99h1M443 99h2M451 99h1M458 99h2M466 99h1M473 99h2M481 99h1M488 99h2M496 99h1M503 99h2M6 100h1M24 100h13M50 100h14M66 100h1M125 100h2M129 100h1M144 100h2M148 100h1M155 100h2M174 100h1M182 100h2M185 100h1M193 100h2M206 100h1M213 100h3M223 100h2M235 100h1M243 100h2M247 100h8M257 100h1M264 100h2M268 100h1M279 100h2M287 100h1M294 100h2M306 100h1M365 100h2M425 100h2M436 100h1M443 100h2M451 100h1M458 100h2M466 100h1M473 100h2M481 100h1M488 100h2M496 100h1M503 100h2M6 101h1M24 101h2M36 101h1M50 101h2M66 101h1M125 101h2M129 101h1M144 101h2M148 101h1M155 101h2M174 101h1M182 101h2M185 101h1M193 101h2M206 101h1M213 101h3M223 101h2M235 101h1M243 101h2M257 101h1M264 101h2M268 101h1M279 101h2M287 101h1M294 101h2M306 101h1M365 101h2M425 101h2M436 101h1M443 101h2M451 101h1M458 101h2M466 101h1M473 101h2M481 101h1M488 101h2M496 101h1M503 101h2M6 102h1M24 102h2M36 102h1M50 102h2M66 102h1M125 102h2M129 102h1M144 102h2M148 102h1M155 102h2M174 102h1M182 102h2M185 102h1M193 102h2M206 102h1M213 102h3M223 102h2M235 102h1M243 102h2M257 102h1M264 102h2M268 102h1M279 102h2M287 102h1M294 102h2M306 102h1M365 102h2M425 102h2M436 102h1M443 102h2M451 102h1M458 102h2M466 102h1M473 102h2M481 102h1M488 102h2M496 102h1M503 102h2M6 103h12M24 103h2M36 103h1M50 103h2M66 103h1M125 103h2M129 103h1M137 103h1M144 103h2M148 103h1M155 103h2M174 103h1M182 103h2M185 103h1M193 103h2M206 103h1M213 103h3M218 103h10M235 103h1M243 103h2M257 103h1M264 103h2M268 103h5M279 103h2M287 103h1M294 103h2M306 103h1M365 103h28M399 103h28M436 103h1M443 103h2M451 103h1M458 103h2M466 103h1M473 103h2M481 103h1M488 103h2M496 103h1M503 103h2M6 104h12M24 104h2M32 104h5M50 104h5M66 104h1M125 104h5M137 104h1M144 104h2M148 104h1M155 104h2M174 104h1M182 104h2M185 104h1M193 104h2M206 104h1M213 104h3M218 104h2M227 104h1M235 104h1M243 104h2M246 104h12M264 104h9M279 104h9M294 104h13M365 104h28M399 104h28M436 104h1M443 104h2M451 104h1M458 104h2M466 104h1M473 104h2M481 104h1M488 104h2M496 104h1M503 104h2M7 105h11M24 105h2M32 105h1M54 105h1M66 105h1M125 105h2M137 105h1M144 105h2M148 105h1M155 105h2M174 105h1M182 105h2M185 105h1M193 105h2M206 105h1M213 105h3M218 105h2M227 105h2M235 105h1M243 105h2M246 105h1M305 105h2M365 105h24M403 105h24M436 105h1M443 105h2M451 105h1M458 105h2M466 105h1M473 105h2M481 105h1M488 105h2M496 105h1M503 105h2M7 106h11M24 106h2M32 106h1M54 106h2M66 106h1M125 106h2M137 106h1M144 106h2M148 106h1M155 106h2M174 106h1M182 106h2M185 106h1M193 106h14M213 106h7M227 106h5M235 106h1M243 106h2M246 106h1M305 106h2M365 106h24M403 106h24M436 106h1M443 106h2M451 106h1M458 106h2M466 106h1M473 106h2M481 106h1M488 106h2M496 106h1M503 106h2M17 107h1M24 107h2M32 107h1M54 107h2M66 107h1M125 107h2M137 107h1M144 107h2M148 107h1M155 107h2M174 107h1M182 107h2M185 107h1M213 107h7M231 107h1M235 107h1M243 107h2M246 107h1M305 107h2M365 107h2M388 107h1M403 107h2M436 107h1M443 107h2M451 107h1M458 107h2M466 107h1M473 107h2M481 107h1M488 107h2M496 107h1M503 107h2M17 108h1M24 108h2M32 108h1M39 108h1M47 108h1M54 108h2M66 108h27M99 108h28M133 108h5M144 108h2M148 108h1M155 108h2M174 108h1M182 108h2M185 108h1M213 108h2M216 108h4M231 108h2M235 108h1M243 108h2M246 108h1M305 108h62M388 108h1M395 108h2M403 108h2M436 108h1M443 108h2M451 108h1M458 108h2M466 108h1M473 108h2M481 108h1M488 108h2M496 108h1M503 108h2M17 109h1M24 109h2M32 109h1M39 109h1M47 109h1M54 109h2M66 109h27M99 109h28M133 109h5M144 109h2M148 109h1M155 109h2M174 109h1M182 109h2M185 109h1M213 109h2M216 109h4M231 109h2M235 109h1M243 109h2M246 109h1M305 109h62M388 109h1M395 109h2M403 109h2M436 109h1M443 109h2M451 109h1M458 109h2M466 109h1M473 109h2M481 109h1M488 109h2M496 109h1M503 109h2M17 110h1M24 110h2M28 110h5M39 110h1M47 110h1M54 110h5M67 110h26M99 110h28M133 110h5M144 110h2M148 110h1M155 110h2M174 110h1M182 110h2M185 110h1M213 110h2M219 110h5M231 110h2M235 110h1M243 110h2M246 110h1M305 110h62M388 110h1M395 110h2M403 110h2M436 110h1M443 110h2M451 110h1M458 110h2M466 110h1M473 110h2M481 110h1M488 110h2M496 110h1M503 110h2M17 111h1M24 111h2M28 111h1M39 111h1M47 111h1M58 111h1M67 111h26M99 111h28M133 111h5M144 111h2M148 111h1M155 111h2M174 111h1M182 111h2M185 111h1M213 111h2M219 111h5M231 111h2M235 111h1M243 111h2M246 111h1M305 111h62M388 111h1M395 111h2M403 111h2M436 111h1M443 111h2M451 111h1M458 111h2M466 111h1M473 111h2M481 111h1M488 111h2M496 111h1M503 111h2M17 112h1M24 112h2M28 112h1M39 112h1M47 112h1M58 112h2M92 112h1M99 112h2M126 112h1M133 112h2M137 112h1M144 112h2M148 112h1M155 112h2M174 112h1M182 112h2M185 112h1M213 112h2M220 112h4M231 112h2M235 112h1M243 112h2M246 112h1M305 112h2M388 112h1M395 112h2M403 112h2M436 112h1M443 112h2M451 112h1M458 112h2M466 112h1M473 112h2M481 112h1M488 112h2M496 112h1M503 112h2M17 113h1M24 113h2M28 113h1M39 113h1M47 113h1M58 113h2M92 113h1M99 113h2M126 113h1M133 113h2M137 113h1M144 113h2M148 113h1M155 113h2M174 113h1M182 113h2M185 113h1M193 113h14M213 113h2M220 113h4M231 113h2M235 113h1M243 113h2M246 113h1M305 113h2M388 113h1M395 113h2M403 113h2M436 113h1M443 113h2M451 113h1M458 113h2M466 113h1M473 113h2M481 113h1M488 113h2M496 113h1M503 113h2M17 114h1M24 114h2M28 114h1M35 114h5M47 114h5M58 114h2M92 114h1M99 114h2M126 114h9M137 114h1M144 114h2M148 114h1M155 114h2M174 114h1M182 114h2M185 114h1M193 114h14M213 114h2M223 114h1M231 114h2M235 114h1M243 114h2M246 114h8M260 114h28M294 114h13M388 114h1M395 114h2M403 114h2M436 114h1M443 114h2M451 114h1M458 114h2M466 114h1M473 114h2M481 114h1M488 114h2M496 114h1M503 114h2M17 115h1M24 115h5M35 115h5M47 115h5M58 115h5M92 115h1M99 115h2M126 115h9M137 115h1M144 115h2M148 115h1M155 115h2M174 115h1M182 115h2M185 115h1M193 115h14M213 115h2M223 115h1M231 115h2M235 115h1M243 115h2M246 115h8M260 115h28M294 115h13M384 115h5M395 115h2M403 115h5M436 115h1M443 115h2M451 115h1M458 115h2M466 115h1M473 115h2M481 115h1M488 115h2M496 115h1M503 115h2M17 116h1M24 116h1M35 116h5M47 116h5M62 116h1M92 116h1M99 116h2M127 116h8M137 116h1M144 116h2M148 116h1M155 116h2M174 116h1M182 116h2M185 116h1M193 116h14M213 116h2M223 116h1M231 116h2M235 116h1M243 116h2M247 116h7M260 116h9M275 116h13M294 116h13M384 116h1M395 116h2M407 116h1M436 116h1M443 116h2M451 116h1M458 116h2M466 116h1M473 116h2M481 116h1M488 116h2M496 116h1M503 116h2M17 117h1M24 117h1M35 117h5M47 117h5M62 117h2M92 117h1M99 117h2M127 117h8M137 117h1M144 117h2M148 117h1M155 117h2M174 117h1M182 117h2M185 117h1M193 117h2M206 117h1M213 117h2M223 117h10M235 117h1M243 117h2M247 117h7M260 117h9M275 117h13M294 117h13M384 117h1M395 117h2M407 117h2M436 117h1M443 117h2M451 117h1M458 117h2M466 117h1M473 117h2M481 117h1M488 117h2M496 117h1M503 117h2M17 118h1M24 118h1M35 118h2M39 118h1M47 118h2M51 118h1M62 118h2M92 118h1M99 118h2M137 118h1M144 118h2M148 118h1M155 118h2M174 118h1M182 118h2M185 118h1M193 118h2M206 118h1M213 118h2M223 118h10M235 118h1M243 118h2M253 118h1M260 118h2M268 118h1M275 118h2M287 118h1M294 118h2M384 118h1M395 118h2M407 118h2M436 118h1M443 118h2M451 118h1M458 118h2M466 118h1M473 118h2M481 118h1M488 118h2M496 118h1M503 118h2M17 119h1M24 119h1M32 119h5M39 119h1M47 119h2M51 119h4M62 119h2M92 119h1M99 119h2M137 119h1M144 119h2M148 119h1M155 119h2M174 119h1M182 119h2M185 119h1M193 119h2M206 119h1M213 119h2M224 119h9M235 119h1M243 119h2M253 119h1M260 119h2M268 119h1M275 119h2M287 119h1M294 119h2M384 119h1M392 119h8M407 119h2M436 119h1M443 119h2M451 119h1M458 119h2M466 119h1M473 119h2M481 119h1M488 119h2M496 119h1M503 119h2M17 120h1M24 120h1M32 120h5M39 120h1M47 120h2M51 120h4M62 120h2M92 120h1M99 120h2M137 120h1M144 120h2M148 120h1M155 120h2M174 120h1M182 120h2M185 120h1M193 120h2M206 120h1M213 120h2M224 120h9M235 120h1M243 120h2M253 120h1M260 120h2M268 120h1M275 120h2M287 120h1M294 120h2M384 120h1M392 120h8M407 120h2M436 120h9M451 120h9M466 120h9M481 120h9M496 120h9M17 121h1M24 121h1M32 121h5M39 121h1M47 121h2M52 121h3M62 121h2M92 121h1M99 121h2M137 121h1M144 121h2M148 121h1M155 121h2M174 121h1M182 121h2M185 121h1M193 121h2M206 121h1M213 121h2M235 121h1M243 121h2M253 121h1M260 121h2M268 121h1M275 121h5M287 121h1M294 121h2M384 121h1M392 121h8M407 121h2M436 121h9M451 121h9M466 121h9M481 121h9M496 121h9M17 122h1M24 122h1M32 122h5M39 122h1M47 122h2M52 122h3M62 122h2M92 122h1M99 122h2M137 122h1M144 122h2M148 122h1M155 122h2M174 122h1M182 122h2M185 122h1M193 122h2M206 122h1M213 122h2M235 122h1M243 122h2M253 122h1M260 122h2M268 122h1M279 122h1M287 122h1M294 122h2M384 122h1M392 122h8M407 122h2M437 122h8M452 122h8M467 122h8M482 122h8M497 122h8M17 123h1M24 123h1M32 123h2M39 123h1M47 123h2M54 123h1M62 123h2M92 123h1M99 123h2M137 123h1M144 123h2M148 123h1M155 123h2M174 123h1M182 123h2M185 123h1M193 123h2M206 123h1M213 123h2M235 123h1M243 123h2M253 123h1M260 123h2M268 123h1M279 123h2M287 123h1M294 123h2M384 123h1M392 123h2M399 123h1M407 123h2M436 123h9M451 123h9M466 123h9M481 123h9M496 123h9M17 124h1M24 124h1M32 124h2M39 124h1M47 124h2M54 124h1M62 124h2M92 124h1M99 124h2M137 124h1M144 124h2M148 124h1M155 124h2M174 124h1M182 124h2M185 124h1M193 124h14M213 124h2M235 124h1M243 124h2M253 124h1M260 124h2M268 124h1M279 124h2M287 124h1M294 124h2M384 124h1M392 124h2M399 124h1M407 124h2M436 124h1M443 124h1M451 124h1M458 124h1M466 124h1M473 124h1M481 124h1M488 124h1M496 124h1M503 124h1M17 125h1M24 125h10M39 125h1M47 125h2M54 125h10M92 125h1M99 125h2M137 125h1M144 125h2M148 125h1M155 125h2M174 125h1M182 125h2M185 125h1M213 125h2M235 125h1M243 125h2M253 125h1M260 125h2M268 125h5M279 125h2M287 125h1M294 125h2M384 125h1M392 125h2M399 125h1M407 125h2M436 125h1M443 125h2M451 125h1M458 125h2M466 125h1M473 125h2M481 125h1M488 125h2M496 125h1M503 125h2M17 126h1M24 126h10M39 126h1M47 126h2M54 126h10M92 126h1M99 126h2M137 126h1M144 126h2M148 126h1M155 126h2M174 126h1M182 126h2M185 126h1M213 126h2M235 126h1M243 126h2M253 126h1M260 126h13M279 126h9M294 126h9M381 126h4M392 126h2M399 126h1M407 126h4M436 126h1M443 126h2M451 126h1M458 126h2M466 126h1M473 126h2M481 126h1M488 126h2M496 126h1M503 126h2M17 127h1M24 127h10M39 127h1M47 127h2M55 127h9M92 127h1M99 127h2M137 127h1M144 127h2M148 127h1M155 127h2M174 127h1M182 127h2M185 127h1M213 127h2M235 127h1M243 127h2M253 127h1M302 127h1M381 127h1M392 127h2M399 127h1M410 127h1M436 127h1M443 127h2M451 127h1M458 127h2M466 127h1M473 127h2M481 127h1M488 127h2M496 127h1M503 127h2M17 128h1M24 128h10M39 128h1M47 128h2M55 128h9M92 128h1M99 128h2M137 128h1M144 128h2M148 128h1M155 128h2M174 128h1M182 128h2M185 128h1M213 128h2M223 128h13M243 128h2M253 128h1M302 128h2M381 128h1M392 128h2M399 128h1M410 128h2M436 128h1M443 128h2M451 128h1M458 128h2M466 128h1M473 128h2M481 128h1M488 128h2M496 128h1M503 128h2M17 129h1M24 129h2M39 129h1M47 129h2M92 129h1M99 129h2M137 129h1M144 129h2M148 129h1M155 129h2M174 129h1M182 129h2M185 129h1M213 129h2M223 129h1M231 129h1M243 129h2M253 129h1M302 129h2M381 129h1M392 129h2M399 129h1M410 129h2M436 129h1M443 129h2M451 129h1M458 129h2M466 129h1M473 129h2M481 129h1M488 129h2M496 129h1M503 129h2M17 130h1M24 130h2M39 130h1M47 130h2M92 130h1M99 130h2M137 130h1M144 130h2M148 130h1M155 130h2M174 130h1M182 130h2M185 130h1M213 130h2M223 130h1M231 130h1M243 130h2M253 130h1M302 130h2M381 130h1M392 130h2M399 130h1M410 130h2M436 130h1M443 130h2M451 130h1M458 130h2M466 130h1M473 130h2M481 130h1M488 130h2M496 130h1M503 130h2M17 131h1M24 131h2M39 131h1M47 131h2M92 131h1M99 131h2M137 131h1M144 131h2M148 131h1M155 131h2M174 131h1M182 131h2M185 131h1M193 131h14M213 131h2M223 131h1M231 131h1M239 131h6M253 131h1M302 131h2M381 131h1M388 131h6M399 131h5M410 131h2M436 131h1M443 131h2M451 131h1M458 131h2M466 131h1M473 131h2M481 131h1M488 131h2M496 131h1M503 131h2M13 132h5M24 132h5M39 132h1M47 132h2M92 132h1M99 132h2M137 132h1M144 132h2M148 132h1M155 132h2M174 132h1M182 132h2M185 132h1M193 132h14M213 132h2M223 132h1M239 132h6M253 132h1M302 132h2M377 132h5M388 132h6M399 132h5M410 132h5M436 132h1M443 132h2M451 132h1M458 132h2M466 132h1M473 132h2M481 132h1M488 132h2M496 132h1M503 132h2M13 133h1M28 133h1M39 133h1M47 133h2M92 133h1M99 133h2M137 133h1M144 133h2M148 133h1M155 133h2M174 133h1M182 133h2M185 133h1M193 133h14M213 133h2M223 133h1M239 133h6M253 133h1M302 133h2M377 133h1M388 133h6M400 133h4M414 133h1M436 133h1M443 133h2M451 133h1M458 133h2M466 133h1M473 133h2M481 133h1M488 133h2M496 133h1M503 133h2M13 134h1M28 134h2M39 134h1M47 134h2M92 134h1M99 134h2M137 134h1M144 134h2M148 134h1M155 134h2M174 134h1M182 134h2M185 134h1M193 134h14M213 134h2M223 134h1M239 134h6M253 134h1M302 134h2M377 134h1M388 134h6M400 134h4M414 134h2M436 134h1M443 134h2M451 134h1M458 134h2M466 134h1M473 134h2M481 134h1M488 134h2M496 134h1M503 134h2M13 135h1M28 135h2M39 135h1M47 135h2M92 135h1M99 135h2M137 135h1M144 135h2M148 135h1M155 135h2M174 135h1M182 135h2M185 135h10M206 135h9M223 135h5M235 135h6M253 135h1M302 135h2M377 135h1M388 135h2M403 135h1M414 135h2M436 135h1M443 135h2M451 135h1M458 135h2M466 135h1M473 135h2M481 135h1M488 135h2M496 135h1M503 135h2M13 136h1M20 136h2M28 136h2M39 136h10M92 136h1M99 136h2M137 136h1M144 136h2M148 136h1M155 136h2M174 136h1M182 136h2M185 136h10M206 136h9M223 136h5M235 136h6M253 136h35M294 136h10M377 136h1M384 136h6M403 136h5M414 136h2M436 136h1M443 136h2M451 136h1M458 136h2M466 136h1M473 136h2M481 136h1M488 136h2M496 136h1M503 136h2M9 137h5M20 137h2M28 137h38M84 137h9M99 137h2M137 137h1M144 137h2M148 137h1M155 137h2M167 137h8M182 137h2M186 137h9M207 137h8M224 137h4M235 137h6M253 137h35M294 137h10M373 137h5M384 137h6M403 137h5M414 137h5M436 137h1M443 137h2M451 137h1M458 137h2M466 137h1M473 137h2M481 137h1M488 137h2M496 137h1M503 137h2M9 138h1M20 138h2M65 138h1M84 138h1M92 138h1M99 138h2M137 138h1M144 138h2M148 138h1M155 138h2M167 138h1M174 138h1M182 138h2M186 138h9M207 138h8M224 138h17M254 138h23M283 138h1M294 138h10M373 138h1M384 138h6M404 138h4M418 138h1M436 138h1M443 138h2M451 138h1M458 138h2M466 138h1M473 138h2M481 138h1M488 138h2M496 138h1M503 138h2M9 139h1M20 139h2M65 139h2M84 139h1M92 139h1M99 139h2M137 139h1M144 139h2M148 139h1M155 139h2M167 139h1M174 139h1M182 139h2M227 139h10M254 139h23M283 139h1M294 139h10M373 139h1M384 139h6M404 139h4M418 139h2M436 139h1M443 139h2M451 139h1M458 139h2M466 139h1M473 139h2M481 139h1M488 139h2M496 139h1M503 139h2M9 140h1M20 140h2M65 140h2M84 140h1M92 140h1M99 140h2M137 140h1M144 140h2M148 140h1M155 140h2M167 140h1M174 140h1M182 140h2M228 140h9M276 140h1M283 140h1M294 140h2M373 140h1M384 140h2M407 140h1M418 140h2M436 140h1M443 140h2M451 140h1M458 140h2M466 140h1M473 140h2M481 140h1M488 140h2M496 140h1M503 140h2M9 141h1M20 141h2M65 141h2M84 141h1M92 141h1M99 141h2M137 141h1M144 141h2M148 141h1M155 141h2M167 141h1M174 141h1M182 141h2M228 141h9M276 141h1M283 141h1M294 141h2M373 141h1M384 141h2M407 141h1M418 141h2M436 141h9M451 141h9M466 141h9M481 141h9M496 141h9M9 142h1M17 142h8M65 142h2M84 142h1M92 142h1M99 142h2M137 142h1M144 142h2M148 142h1M155 142h2M167 142h1M174 142h1M182 142h2M276 142h1M283 142h1M290 142h6M373 142h1M380 142h6M407 142h5M418 142h2M436 142h9M451 142h9M466 142h9M481 142h9M496 142h9M9 143h1M17 143h8M65 143h2M84 143h1M92 143h1M99 143h2M137 143h1M144 143h2M148 143h1M155 143h2M167 143h1M174 143h1M182 143h2M276 143h1M283 143h1M290 143h6M366 143h8M380 143h6M407 143h5M418 143h8M437 143h8M452 143h8M467 143h8M482 143h8M497 143h8M9 144h1M17 144h8M65 144h2M84 144h1M99 144h2M137 144h1M144 144h2M148 144h1M155 144h2M167 144h1M182 144h2M276 144h1M290 144h6M366 144h1M380 144h6M408 144h4M425 144h1M437 144h8M452 144h8M467 144h8M482 144h8M497 144h8M9 145h1M17 145h8M65 145h2M84 145h1M99 145h2M137 145h1M144 145h2M148 145h1M155 145h2M167 145h1M182 145h2M276 145h1M290 145h6M366 145h1M380 145h6M408 145h4M425 145h2M9 146h1M17 146h2M24 146h1M65 146h2M84 146h1M99 146h2M137 146h1M144 146h2M148 146h1M155 146h2M167 146h1M182 146h2M276 146h1M290 146h2M366 146h1M380 146h2M411 146h1M425 146h2M9 147h10M24 147h43M84 147h5M95 147h6M137 147h1M144 147h2M148 147h1M155 147h2M167 147h5M178 147h6M276 147h4M287 147h5M366 147h1M377 147h5M411 147h4M425 147h2M9 148h10M24 148h43M84 148h5M95 148h6M137 148h1M144 148h2M148 148h1M155 148h2M167 148h5M178 148h6M276 148h4M287 148h5M366 148h1M377 148h5M411 148h4M425 148h2M10 149h9M25 149h42M85 149h4M95 149h6M137 149h1M144 149h2M148 149h1M155 149h2M168 149h4M178 149h6M277 149h3M287 149h5M366 149h1M377 149h5M412 149h3M425 149h2M10 150h9M25 150h42M85 150h4M95 150h6M137 150h1M144 150h2M148 150h1M155 150h2M168 150h4M178 150h6M277 150h3M287 150h5M366 150h1M377 150h5M412 150h3M425 150h2M88 151h1M95 151h2M137 151h1M144 151h2M148 151h1M155 151h2M171 151h1M178 151h2M279 151h1M287 151h2M366 151h1M377 151h2M414 151h1M425 151h2M88 152h1M95 152h2M137 152h1M144 152h2M148 152h1M155 152h2M171 152h1M178 152h2M279 152h1M287 152h2M366 152h1M377 152h2M414 152h1M425 152h2M88 153h9M137 153h9M148 153h9M171 153h9M279 153h10M366 153h13M414 153h13M88 154h9M137 154h9M148 154h9M171 154h9M279 154h10M366 154h13M414 154h13M89 155h8M138 155h8M149 155h8M172 155h8M280 155h9M367 155h12M415 155h12M89 156h8M138 156h8M149 156h8M172 156h8M280 156h9M367 156h12M415 156h12M35 180h10M55 180h10M67 180h10M83 180h10M99 180h26M131 180h22M163 180h30M195 180h10M215 180h10M227 180h30M259 180h26M291 180h10M307 180h10M319 180h26M355 180h22M383 180h10M399 180h10M415 180h10M427 180h10M439 180h10M451 180h10M463 180h10M35 181h1M44 181h1M55 181h1M64 181h1M67 181h1M76 181h1M83 181h1M92 181h1M99 181h1M124 181h1M131 181h1M152 181h1M163 181h1M192 181h1M195 181h1M204 181h1M215 181h1M224 181h1M227 181h1M256 181h1M259 181h1M284 181h1M291 181h1M300 181h1M307 181h1M316 181h1M319 181h1M344 181h1M355 181h1M376 181h1M383 181h1M392 181h1M399 181h1M408 181h1M415 181h1M424 181h1M427 181h1M436 181h1M439 181h1M448 181h1M451 181h1M460 181h1M463 181h1M472 181h1M35 182h1M44 182h2M55 182h1M64 182h2M67 182h1M76 182h2M83 182h1M92 182h2M99 182h1M124 182h2M131 182h1M152 182h2M163 182h1M192 182h2M195 182h1M204 182h2M215 182h1M224 182h2M227 182h1M256 182h2M259 182h1M284 182h2M291 182h1M300 182h2M307 182h1M316 182h2M319 182h1M344 182h2M355 182h1M376 182h2M383 182h1M392 182h2M399 182h1M408 182h2M415 182h1M424 182h2M427 182h1M436 182h2M439 182h1M448 182h2M451 182h1M460 182h2M463 182h1M472 182h2M35 183h1M44 183h2M55 183h1M64 183h2M67 183h1M76 183h2M83 183h1M92 183h2M99 183h1M124 183h2M131 183h1M152 183h2M163 183h1M192 183h2M195 183h1M204 183h2M215 183h1M224 183h2M227 183h1M256 183h2M259 183h1M284 183h2M291 183h1M300 183h2M307 183h1M316 183h2M319 183h1M344 183h2M355 183h1M376 183h2M383 183h1M392 183h2M399 183h1M408 183h2M415 183h1M424 183h2M427 183h1M436 183h2M439 183h1M448 183h2M451 183h1M460 183h2M463 183h1M472 183h2M35 184h1M44 184h5M51 184h5M64 184h2M67 184h1M76 184h2M83 184h1M92 184h2M95 184h5M124 184h2M127 184h5M152 184h5M163 184h1M192 184h2M195 184h1M204 184h2M215 184h1M224 184h2M227 184h1M256 184h2M259 184h1M284 184h5M291 184h1M300 184h2M307 184h1M316 184h2M319 184h1M344 184h5M351 184h5M376 184h5M383 184h1M392 184h2M399 184h1M408 184h2M415 184h1M424 184h2M427 184h1M436 184h2M439 184h1M448 184h2M451 184h1M460 184h2M463 184h1M472 184h2M35 185h1M48 185h1M51 185h1M64 185h2M67 185h1M76 185h2M83 185h1M92 185h2M95 185h1M124 185h2M127 185h1M156 185h1M163 185h1M192 185h2M195 185h1M204 185h2M215 185h1M224 185h2M227 185h1M256 185h2M259 185h1M288 185h1M291 185h1M300 185h2M307 185h1M316 185h2M319 185h1M348 185h1M351 185h1M380 185h1M383 185h1M392 185h2M399 185h1M408 185h2M415 185h1M424 185h2M427 185h1M436 185h2M439 185h1M448 185h2M451 185h1M460 185h2M463 185h1M472 185h2M35 186h1M48 186h2M51 186h1M64 186h2M67 186h1M76 186h2M83 186h1M92 186h2M95 186h1M124 186h2M127 186h1M156 186h2M163 186h1M192 186h2M195 186h1M204 186h2M215 186h1M224 186h2M227 186h1M256 186h2M259 186h1M288 186h2M291 186h1M300 186h2M307 186h1M316 186h2M319 186h1M348 186h2M351 186h1M380 186h2M383 186h1M392 186h2M399 186h1M408 186h2M415 186h1M424 186h2M427 186h1M436 186h2M439 186h1M448 186h2M451 186h1M460 186h2M463 186h1M472 186h2M35 187h1M48 187h2M51 187h1M64 187h2M67 187h1M76 187h2M83 187h1M92 187h2M95 187h1M124 187h2M127 187h1M156 187h2M163 187h1M192 187h2M195 187h1M204 187h2M215 187h1M224 187h2M227 187h1M256 187h2M259 187h1M288 187h2M291 187h1M300 187h2M307 187h1M316 187h2M319 187h1M348 187h2M351 187h1M380 187h2M383 187h1M392 187h2M399 187h1M408 187h2M415 187h1M424 187h2M427 187h1M436 187h2M439 187h1M448 187h2M451 187h1M460 187h2M463 187h1M472 187h2M35 188h1M48 188h4M64 188h2M67 188h1M76 188h8M92 188h2M95 188h1M124 188h2M127 188h1M156 188h2M163 188h1M192 188h2M195 188h1M204 188h5M211 188h5M224 188h2M227 188h1M256 188h2M259 188h1M288 188h2M291 188h1M300 188h8M316 188h2M319 188h1M348 188h2M351 188h1M380 188h2M383 188h1M392 188h8M408 188h2M415 188h1M424 188h2M427 188h1M436 188h2M439 188h1M448 188h2M451 188h1M460 188h2M463 188h1M472 188h2M35 189h1M64 189h2M67 189h1M92 189h2M95 189h1M104 189h22M127 189h1M136 189h12M156 189h2M163 189h1M172 189h22M195 189h5M208 189h1M211 189h1M220 189h6M227 189h1M236 189h22M259 189h1M268 189h12M288 189h2M291 189h1M316 189h2M319 189h1M328 189h12M348 189h2M351 189h1M360 189h12M380 189h2M383 189h1M408 189h2M415 189h1M424 189h2M427 189h1M436 189h2M439 189h1M448 189h2M451 189h1M460 189h2M463 189h1M472 189h2M35 190h1M64 190h2M67 190h1M92 190h2M95 190h1M104 190h22M127 190h1M136 190h12M156 190h2M163 190h1M172 190h22M195 190h5M208 190h2M211 190h1M220 190h6M227 190h1M236 190h22M259 190h1M268 190h12M288 190h2M291 190h1M316 190h2M319 190h1M328 190h12M348 190h2M351 190h1M360 190h12M380 190h2M383 190h1M408 190h2M415 190h1M424 190h2M427 190h1M436 190h2M439 190h1M448 190h2M451 190h1M460 190h2M463 190h1M472 190h2M35 191h1M64 191h2M67 191h1M92 191h2M95 191h1M104 191h22M127 191h1M136 191h12M156 191h2M163 191h1M172 191h22M196 191h4M208 191h2M211 191h1M220 191h6M227 191h1M236 191h22M259 191h1M268 191h12M288 191h2M291 191h1M316 191h2M319 191h1M328 191h12M348 191h2M351 191h1M360 191h12M380 191h2M383 191h1M408 191h2M415 191h1M424 191h2M427 191h1M436 191h2M439 191h1M448 191h2M451 191h1M460 191h2M463 191h1M472 191h2M35 192h1M64 192h2M67 192h1M92 192h2M95 192h1M104 192h22M127 192h1M136 192h12M156 192h2M163 192h1M172 192h22M196 192h4M208 192h2M211 192h1M220 192h6M227 192h1M236 192h22M259 192h1M268 192h12M288 192h2M291 192h1M316 192h2M319 192h1M328 192h12M348 192h2M351 192h1M360 192h12M380 192h2M383 192h1M408 192h2M415 192h1M424 192h2M427 192h1M436 192h2M439 192h1M448 192h2M451 192h1M460 192h2M463 192h1M472 192h2M35 193h1M44 193h4M52 193h4M64 193h2M67 193h5M88 193h6M95 193h1M104 193h2M107 193h1M124 193h1M127 193h1M136 193h2M147 193h1M156 193h2M163 193h1M184 193h1M199 193h1M208 193h2M211 193h1M220 193h2M227 193h1M248 193h1M259 193h1M288 193h2M291 193h5M312 193h6M319 193h1M328 193h2M339 193h1M348 193h2M351 193h1M380 193h2M383 193h5M404 193h6M415 193h1M424 193h2M427 193h1M436 193h2M439 193h1M448 193h2M451 193h1M460 193h2M463 193h1M472 193h2M35 194h1M44 194h4M52 194h4M64 194h2M67 194h5M88 194h6M95 194h1M104 194h2M107 194h1M124 194h2M127 194h1M136 194h2M147 194h1M156 194h2M163 194h1M184 194h2M199 194h1M208 194h2M211 194h1M220 194h2M227 194h1M248 194h2M259 194h1M288 194h2M291 194h5M312 194h6M319 194h1M328 194h2M339 194h1M348 194h2M351 194h1M380 194h2M383 194h5M404 194h6M415 194h1M424 194h2M427 194h1M436 194h2M439 194h1M448 194h2M451 194h1M460 194h2M463 194h1M472 194h2M35 195h1M44 195h4M52 195h4M64 195h2M68 195h4M88 195h6M95 195h1M104 195h2M107 195h1M124 195h2M127 195h1M136 195h2M147 195h1M156 195h2M163 195h1M184 195h2M199 195h1M208 195h2M211 195h1M220 195h2M227 195h1M248 195h2M259 195h1M288 195h2M292 195h4M312 195h6M319 195h1M328 195h2M339 195h1M348 195h2M351 195h1M380 195h2M384 195h4M404 195h6M415 195h1M424 195h2M427 195h1M436 195h2M439 195h1M448 195h2M451 195h1M460 195h2M463 195h1M472 195h2M35 196h1M44 196h4M52 196h4M64 196h2M68 196h4M88 196h6M95 196h1M104 196h2M107 196h1M124 196h2M127 196h1M136 196h2M147 196h1M156 196h2M163 196h1M184 196h2M199 196h1M208 196h4M220 196h2M227 196h1M248 196h2M259 196h1M288 196h2M292 196h4M312 196h6M319 196h1M328 196h2M339 196h1M348 196h2M351 196h1M380 196h2M384 196h4M404 196h6M415 196h1M424 196h2M427 196h1M436 196h2M439 196h1M448 196h2M451 196h1M460 196h2M463 196h1M472 196h2M35 197h1M44 197h2M47 197h7M55 197h1M64 197h2M71 197h5M84 197h6M95 197h1M104 197h2M107 197h9M124 197h2M127 197h1M136 197h2M147 197h1M156 197h2M163 197h1M172 197h14M199 197h5M216 197h6M227 197h1M236 197h14M259 197h1M284 197h6M295 197h5M308 197h6M319 197h1M328 197h2M339 197h1M348 197h2M351 197h1M380 197h2M387 197h5M400 197h6M415 197h11M427 197h11M439 197h11M451 197h11M463 197h11M35 198h1M44 198h2M47 198h7M55 198h1M64 198h2M71 198h5M84 198h6M95 198h1M104 198h2M107 198h9M124 198h2M127 198h1M136 198h2M147 198h1M156 198h2M163 198h1M172 198h14M199 198h5M216 198h6M227 198h1M236 198h14M259 198h1M284 198h6M295 198h5M308 198h6M319 198h1M328 198h2M339 198h1M348 198h2M351 198h1M380 198h2M387 198h5M400 198h6M415 198h11M427 198h11M439 198h11M451 198h11M463 198h11M35 199h1M44 199h2M48 199h6M55 199h1M64 199h2M72 199h4M84 199h6M95 199h1M104 199h2M108 199h8M124 199h2M127 199h1M136 199h2M147 199h1M156 199h2M163 199h1M172 199h14M200 199h4M216 199h6M227 199h1M236 199h14M259 199h1M284 199h6M296 199h4M308 199h6M319 199h1M328 199h2M339 199h1M348 199h2M351 199h1M380 199h2M388 199h4M400 199h6M416 199h10M428 199h10M440 199h10M452 199h10M464 199h10M35 200h1M44 200h2M48 200h6M55 200h1M64 200h2M72 200h4M84 200h6M95 200h1M104 200h12M124 200h2M127 200h1M136 200h12M156 200h2M163 200h1M172 200h21M200 200h4M216 200h6M227 200h1M236 200h21M259 200h1M284 200h6M296 200h4M308 200h6M319 200h1M328 200h12M348 200h2M351 200h1M380 200h2M388 200h4M400 200h6M415 200h11M427 200h11M439 200h11M451 200h11M463 200h11M35 201h1M44 201h2M55 201h1M64 201h2M75 201h1M84 201h2M95 201h1M124 201h2M127 201h1M156 201h2M163 201h1M192 201h1M203 201h1M216 201h2M227 201h1M256 201h1M259 201h1M268 201h12M288 201h1M299 201h1M308 201h2M319 201h1M348 201h2M351 201h1M360 201h12M380 201h2M391 201h1M400 201h2M415 201h1M424 201h1M427 201h1M436 201h1M439 201h1M448 201h1M451 201h1M460 201h1M463 201h1M472 201h1M35 202h1M44 202h2M55 202h1M64 202h2M75 202h1M84 202h2M95 202h1M124 202h2M127 202h1M156 202h2M163 202h1M192 202h2M203 202h1M216 202h2M227 202h1M256 202h2M259 202h1M268 202h12M288 202h2M299 202h1M308 202h2M319 202h1M348 202h2M351 202h1M360 202h12M380 202h2M391 202h1M400 202h2M415 202h1M424 202h2M427 202h1M436 202h2M439 202h1M448 202h2M451 202h1M460 202h2M463 202h1M472 202h2M35 203h1M44 203h2M55 203h1M64 203h2M75 203h1M84 203h2M95 203h1M124 203h2M127 203h1M156 203h2M163 203h1M192 203h2M203 203h1M216 203h2M227 203h1M256 203h2M259 203h1M268 203h12M288 203h2M299 203h1M308 203h2M319 203h1M348 203h2M351 203h1M360 203h12M380 203h2M391 203h1M400 203h2M415 203h1M424 203h2M427 203h1M436 203h2M439 203h1M448 203h2M451 203h1M460 203h2M463 203h1M472 203h2M35 204h1M44 204h2M55 204h1M64 204h2M75 204h1M84 204h2M95 204h1M124 204h2M127 204h1M156 204h2M163 204h1M192 204h2M203 204h1M216 204h2M227 204h1M256 204h2M259 204h1M268 204h12M288 204h2M299 204h1M308 204h2M319 204h1M348 204h2M351 204h1M360 204h12M380 204h2M391 204h1M400 204h2M415 204h1M424 204h2M427 204h1M436 204h2M439 204h1M448 204h2M451 204h1M460 204h2M463 204h1M472 204h2M35 205h1M44 205h2M55 205h1M64 205h2M75 205h1M84 205h2M95 205h5M124 205h2M127 205h5M152 205h6M163 205h1M192 205h2M203 205h5M212 205h6M227 205h1M256 205h2M259 205h1M268 205h2M279 205h1M288 205h2M299 205h1M308 205h2M319 205h1M344 205h6M351 205h1M360 205h2M371 205h1M380 205h2M391 205h1M400 205h2M415 205h1M424 205h2M427 205h1M436 205h2M439 205h1M448 205h2M451 205h1M460 205h2M463 205h1M472 205h2M35 206h1M44 206h2M55 206h1M64 206h2M75 206h1M84 206h2M95 206h5M124 206h2M127 206h5M152 206h6M163 206h1M192 206h2M203 206h5M212 206h6M227 206h1M256 206h2M259 206h1M268 206h2M279 206h1M288 206h2M299 206h1M308 206h2M319 206h1M344 206h6M351 206h1M360 206h2M371 206h1M380 206h2M391 206h1M400 206h2M415 206h1M424 206h2M427 206h1M436 206h2M439 206h1M448 206h2M451 206h1M460 206h2M463 206h1M472 206h2M35 207h1M44 207h2M55 207h1M64 207h2M75 207h1M84 207h2M96 207h4M124 207h2M128 207h4M152 207h6M163 207h1M192 207h2M204 207h4M212 207h6M227 207h1M256 207h2M259 207h1M268 207h2M279 207h1M288 207h2M299 207h1M308 207h2M319 207h1M344 207h6M351 207h1M360 207h2M371 207h1M380 207h2M391 207h1M400 207h2M415 207h1M424 207h2M427 207h1M436 207h2M439 207h1M448 207h2M451 207h1M460 207h2M463 207h1M472 207h2M35 208h1M44 208h2M55 208h1M64 208h2M75 208h1M84 208h2M96 208h4M124 208h2M128 208h4M152 208h6M163 208h1M192 208h2M204 208h4M212 208h6M227 208h1M256 208h2M259 208h1M268 208h2M279 208h1M288 208h2M299 208h1M308 208h2M319 208h1M344 208h6M351 208h1M360 208h2M371 208h1M380 208h2M391 208h1M400 208h2M415 208h1M424 208h2M427 208h1M436 208h2M439 208h1M448 208h2M451 208h1M460 208h2M463 208h1M472 208h2M35 209h11M55 209h11M75 209h11M99 209h27M131 209h23M163 209h31M207 209h7M227 209h31M259 209h11M279 209h11M299 209h11M319 209h27M351 209h11M371 209h11M391 209h11M415 209h11M427 209h11M439 209h11M451 209h11M463 209h11M35 210h11M55 210h11M75 210h11M99 210h27M131 210h23M163 210h31M207 210h7M227 210h31M259 210h11M279 210h11M299 210h11M319 210h27M351 210h11M371 210h11M391 210h11M415 210h11M427 210h11M439 210h11M451 210h11M463 210h11M36 211h10M56 211h10M76 211h10M100 211h26M132 211h22M164 211h30M208 211h6M228 211h30M260 211h10M280 211h10M300 211h10M320 211h26M352 211h10M372 211h10M392 211h10M416 211h10M428 211h10M440 211h10M452 211h10M464 211h10M36 212h10M56 212h10M76 212h10M100 212h26M132 212h22M164 212h30M208 212h6M228 212h30M260 212h10M280 212h10M300 212h10M320 212h26M352 212h10M372 212h10M392 212h10M416 212h10M428 212h10M440 212h10M452 212h10M464 212h10" />
<path stroke="#8ef2f7" d="M40 60h7M142 60h6M153 60h6M258 60h6M40 61h7M142 61h6M153 61h6M258 61h6M40 62h7M142 62h6M153 62h6M258 62h6M40 63h7M142 63h6M153 63h6M258 63h6M40 64h7M142 64h6M153 64h6M258 64h6M40 65h7M142 65h6M153 65h6M258 65h6M14 66h6M29 66h6M40 66h7M52 66h6M70 66h48M142 66h6M153 66h10M258 66h44M374 66h44M14 67h6M29 67h6M40 67h7M52 67h6M70 67h48M142 67h6M153 67h10M258 67h44M374 67h44M14 68h6M29 68h6M40 68h7M52 68h6M70 68h48M142 68h6M153 68h10M258 68h44M374 68h44M14 69h6M29 69h6M40 69h7M52 69h6M70 69h48M142 69h6M157 69h6M258 69h44M374 69h44M14 70h6M29 70h6M40 70h7M52 70h6M70 70h48M142 70h6M157 70h6M258 70h44M374 70h44" />
<path stroke="#ffdd88" d="M437 70h6M437 71h6M437 72h6M437 73h6M437 74h6M437 75h6M437 76h6M437 77h6M437 78h6M437 79h6M437 80h6M437 81h6M437 82h6M437 83h6M437 84h6M437 85h6M437 86h6M437 87h6M437 88h6M437 89h6M437 90h6M437 91h6M437 92h6M437 93h6M437 94h6M437 95h6M437 96h6M437 97h6M437 98h6M437 99h6M437 100h6M437 101h6M437 102h6M437 103h6M437 104h6M437 105h6M437 106h6M437 107h6M437 108h6M437 109h6M437 110h6M437 111h6M437 112h6M437 113h6M437 114h6M437 115h6M437 116h6M437 117h6M437 118h6M437 119h6M437 124h6M437 125h6M437 126h6M437 127h6M437 128h6M437 129h6M437 130h6M437 131h6M437 132h6M437 133h6M437 134h6M437 135h6M437 136h6M437 137h6M437 138h6M437 139h6M437 140h6M416 181h8M416 182h8M416 183h8M416 184h8M416 185h8M416 186h8M416 187h8M416 188h8M416 189h8M416 190h8M416 191h8M416 192h8M416 193h8M416 194h8M416 195h8M416 196h8M416 201h8M416 202h8M416 203h8M416 204h8M416 205h8M416 206h8M416 207h8M416 208h8" />
<path stroke="#ff8899" d="M452 70h6M452 71h6M452 72h6M452 73h6M452 74h6M452 75h6M452 76h6M452 77h6M452 78h6M452 79h6M452 80h6M452 81h6M452 82h6M452 83h6M452 84h6M452 85h6M452 86h6M452 87h6M452 88h6M452 89h6M452 90h6M452 91h6M452 92h6M452 93h6M452 94h6M452 95h6M452 96h6M452 97h6M452 98h6M452 99h6M452 100h6M452 101h6M452 102h6M452 103h6M452 104h6M452 105h6M452 106h6M452 107h6M452 108h6M452 109h6M452 110h6M452 111h6M452 112h6M452 113h6M452 114h6M452 115h6M452 116h6M452 117h6M452 118h6M452 119h6M452 124h6M452 125h6M452 126h6M452 127h6M452 128h6M452 129h6M452 130h6M452 131h6M452 132h6M452 133h6M452 134h6M452 135h6M452 136h6M452 137h6M452 138h6M452 139h6M452 140h6M428 181h8M428 182h8M428 183h8M428 184h8M428 185h8M428 186h8M428 187h8M428 188h8M428 189h8M428 190h8M428 191h8M428 192h8M428 193h8M428 194h8M428 195h8M428 196h8M428 201h8M428 202h8M428 203h8M428 204h8M428 205h8M428 206h8M428 207h8M428 208h8" />
<path stroke="#77bbdd" d="M467 70h6M467 71h6M467 72h6M467 73h6M467 74h6M467 75h6M467 76h6M467 77h6M467 78h6M467 79h6M467 80h6M467 81h6M467 82h6M467 83h6M467 84h6M467 85h6M467 86h6M467 87h6M467 88h6M467 89h6M467 90h6M467 91h6M467 92h6M467 93h6M467 94h6M467 95h6M467 96h6M467 97h6M467 98h6M467 99h6M467 100h6M467 101h6M467 102h6M467 103h6M467 104h6M467 105h6M467 106h6M467 107h6M467 108h6M467 109h6M467 110h6M467 111h6M467 112h6M467 113h6M467 114h6M467 115h6M467 116h6M467 117h6M467 118h6M467 119h6M467 124h6M467 125h6M467 126h6M467 127h6M467 128h6M467 129h6M467 130h6M467 131h6M467 132h6M467 133h6M467 134h6M467 135h6M467 136h6M467 137h6M467 138h6M467 139h6M467 140h6M440 181h8M440 182h8M440 183h8M440 184h8M440 185h8M440 186h8M440 187h8M440 188h8M440 189h8M440 190h8M440 191h8M440 192h8M440 193h8M440 194h8M440 195h8M440 196h8M440 201h8M440 202h8M440 203h8M440 204h8M440 205h8M440 206h8M440 207h8M440 208h8" />
<path stroke="#7777aa" d="M482 70h6M482 71h6M482 72h6M482 73h6M482 74h6M482 75h6M482 76h6M482 77h6M482 78h6M482 79h6M482 80h6M482 81h6M482 82h6M482 83h6M482 84h6M482 85h6M482 86h6M482 87h6M482 88h6M482 89h6M482 90h6M482 91h6M482 92h6M482 93h6M482 94h6M482 95h6M482 96h6M482 97h6M482 98h6M482 99h6M482 100h6M482 101h6M482 102h6M482 103h6M482 104h6M482 105h6M482 106h6M482 107h6M482 108h6M482 109h6M482 110h6M482 111h6M482 112h6M482 113h6M482 114h6M482 115h6M482 116h6M482 117h6M482 118h6M482 119h6M482 124h6M482 125h6M482 126h6M482 127h6M482 128h6M482 129h6M482 130h6M482 131h6M482 132h6M482 133h6M482 134h6M482 135h6M482 136h6M482 137h6M482 138h6M482 139h6M482 140h6M452 181h8M452 182h8M452 183h8M452 184h8M452 185h8M452 186h8M452 187h8M452 188h8M452 189h8M452 190h8M452 191h8M452 192h8M452 193h8M452 194h8M452 195h8M452 196h8M452 201h8M452 202h8M452 203h8M452 204h8M452 205h8M452 206h8M452 207h8M452 208h8" />
<path stroke="#77dd77" d="M497 70h6M497 71h6M497 72h6M497 73h6M497 74h6M497 75h6M497 76h6M497 77h6M497 78h6M497 79h6M497 80h6M497 81h6M497 82h6M497 83h6M497 84h6M497 85h6M497 86h6M497 87h6M497 88h6M497 89h6M497 90h6M497 91h6M497 92h6M497 93h6M497 94h6M497 95h6M497 96h6M497 97h6M497 98h6M497 99h6M497 100h6M497 101h6M497 102h6M497 103h6M497 104h6M497 105h6M497 106h6M497 107h6M497 108h6M497 109h6M497 110h6M497 111h6M497 112h6M497 113h6M497 114h6M497 115h6M497 116h6M497 117h6M497 118h6M497 119h6M497 124h6M497 125h6M497 126h6M497 127h6M497 128h6M497 129h6M497 130h6M497 131h6M497 132h6M497 133h6M497 134h6M497 135h6M497 136h6M497 137h6M497 138h6M497 139h6M497 140h6M464 181h8M464 182h8M464 183h8M464 184h8M464 185h8M464 186h8M464 187h8M464 188h8M464 189h8M464 190h8M464 191h8M464 192h8M464 193h8M464 194h8M464 195h8M464 196h8M464 201h8M464 202h8M464 203h8M464 204h8M464 205h8M464 206h8M464 207h8M464 208h8" />
<path stroke="#82e5f0" d="M14 71h6M29 71h6M40 71h7M52 71h6M70 71h48M142 71h6M157 71h6M258 71h44M374 71h44M14 72h10M29 72h10M40 72h7M52 72h6M70 72h48M142 72h6M157 72h6M164 72h18M254 72h48M374 72h44M14 73h10M29 73h10M40 73h7M52 73h6M70 73h48M142 73h6M157 73h6M164 73h18M254 73h48M374 73h44M14 74h10M29 74h10M40 74h7M52 74h6M70 74h48M142 74h6M157 74h6M164 74h18M254 74h48M374 74h44M18 75h6M33 75h6M40 75h7M52 75h6M108 75h6M142 75h6M157 75h6M164 75h18M254 75h6M393 75h6M18 76h6M33 76h6M40 76h7M52 76h6M108 76h6M142 76h6M157 76h6M164 76h18M254 76h6M393 76h6M18 77h6M33 77h6M40 77h7M48 77h10M104 77h10M138 77h10M149 77h6M157 77h6M164 77h18M254 77h6M393 77h6M18 78h6M33 78h6M40 78h7M48 78h10M104 78h10M138 78h10M149 78h6M157 78h6M164 78h18M254 78h6M393 78h6M18 79h6M33 79h6M40 79h7M48 79h10M104 79h10M138 79h10M149 79h6M157 79h6M164 79h18M254 79h6M393 79h6M18 80h6M33 80h6M40 80h7M48 80h6M104 80h6M138 80h6M149 80h6M175 80h7M254 80h6M393 80h6M18 81h6M33 81h6M40 81h7M48 81h6M104 81h6M138 81h6M149 81h6M175 81h7M254 81h6M393 81h6" />
<path stroke="#e6c77a" d="M194 79h7M194 80h7M194 81h7M194 82h7M194 83h7M194 84h7M194 85h7M190 86h11M190 87h11M190 88h7M190 89h7M186 90h14M186 91h14M186 92h14M186 93h14M186 94h14M186 95h14M186 96h7M186 97h7M186 98h7M186 99h7M186 100h7M186 101h7M186 102h7M186 103h7M186 104h7M186 105h7M186 106h7M186 107h14M186 108h14M186 109h14M186 110h14M186 111h14M186 112h14M186 113h7M186 114h7M186 115h7M186 116h7M186 117h7M186 118h7M186 119h7M186 120h7M186 121h7M186 122h7M186 123h7M186 124h7M186 125h14M186 126h14M186 127h14M186 128h14M186 129h14M186 130h14M186 131h7M186 132h7M186 133h7M186 134h7M164 181h28M164 182h28M164 183h28M164 184h28M164 185h28M164 186h28M164 187h28M164 188h28M164 189h8M164 190h8M164 191h8M164 192h8M164 193h20M164 194h20M164 195h20M164 196h20M164 197h8M164 198h8M164 199h8M164 200h8M164 201h28M164 202h28M164 203h28M164 204h28M164 205h28M164 206h28M164 207h28M164 208h28" />
<path stroke="#6b6b99" d="M220 79h7M220 80h7M220 81h7M220 82h7M220 83h7M220 84h7M220 85h7M220 86h7M220 87h7M220 88h7M220 89h7M220 90h7M220 91h7M220 92h7M216 93h11M216 94h11M216 95h11M216 96h7M216 97h7M216 98h7M216 99h7M216 100h7M216 101h7M216 102h7M216 103h2M216 104h2M216 105h2M260 181h24M260 182h24M260 183h24M260 184h24M260 185h28M260 186h28M260 187h28M260 188h28M260 189h8M280 189h8M260 190h8M280 190h8M260 191h8M280 191h8M260 192h8M280 192h8M260 193h28M260 194h28M260 195h28M260 196h28M260 197h24M260 198h24M260 199h24M260 200h24M260 201h8M280 201h8M260 202h8M280 202h8M260 203h8M280 203h8M260 204h8M280 204h8M260 205h8M280 205h8M260 206h8M280 206h8M260 207h8M280 207h8M260 208h8M280 208h8" />
<path stroke="#77d7e8" d="M18 82h6M33 82h6M40 82h7M48 82h6M104 82h6M138 82h6M149 82h6M175 82h7M254 82h6M393 82h6M18 83h6M33 83h6M40 83h7M48 83h6M100 83h10M138 83h6M149 83h6M175 83h7M250 83h44M393 83h6M18 84h6M33 84h6M40 84h7M48 84h6M100 84h10M138 84h6M149 84h6M175 84h7M250 84h44M393 84h6M18 85h6M33 85h6M40 85h7M48 85h6M100 85h10M138 85h6M149 85h6M175 85h7M250 85h44M393 85h6M40 86h7M100 86h7M138 86h6M149 86h6M175 86h7M250 86h7M258 86h36M393 86h6M40 87h7M100 87h7M138 87h6M149 87h6M175 87h7M250 87h7M258 87h36M393 87h6M25 88h37M93 88h14M134 88h10M149 88h6M175 88h7M247 88h10M258 88h36M393 88h6M25 89h37M93 89h14M134 89h10M149 89h6M175 89h7M247 89h10M258 89h36M393 89h6M25 90h37M93 90h14M134 90h10M149 90h6M175 90h7M247 90h10M258 90h36M393 90h6M25 91h37M93 91h14M134 91h10M149 91h6M175 91h7M247 91h10M258 91h36M393 91h6M25 92h37M93 92h10M134 92h10M149 92h6M175 92h7M247 92h6M258 92h6M288 92h6M393 92h6" />
<path stroke="#e67a8a" d="M200 90h13M200 91h13M200 92h13M200 93h13M200 94h13M200 95h13M207 96h6M207 97h6M207 98h6M207 99h6M207 100h6M207 101h6M207 102h6M207 103h6M207 104h6M207 105h6M207 106h6M200 107h13M200 108h13M200 109h13M200 110h13M200 111h13M200 112h13M207 113h6M207 114h6M207 115h6M207 116h6M207 117h6M207 118h6M207 119h6M207 120h6M207 121h6M207 122h6M207 123h6M207 124h6M200 125h13M200 126h13M200 127h13M200 128h13M200 129h13M200 130h13M207 131h6M207 132h6M207 133h6M207 134h6M196 181h8M216 181h8M196 182h8M216 182h8M196 183h8M216 183h8M196 184h8M216 184h8M196 185h8M216 185h8M196 186h8M216 186h8M196 187h8M216 187h8M196 188h8M216 188h8M200 189h8M212 189h8M200 190h8M212 190h8M200 191h8M212 191h8M200 192h8M212 192h8M200 193h8M212 193h8M200 194h8M212 194h8M200 195h8M212 195h8M200 196h8M212 196h8M204 197h12M204 198h12M204 199h12M204 200h12M204 201h12M204 202h12M204 203h12M204 204h12M208 205h4M208 206h4M208 207h4M208 208h4" />
<path stroke="#6bc76b" d="M227 90h16M227 91h16M227 92h16M227 93h16M227 94h16M227 95h16M236 96h7M236 97h7M236 98h7M236 99h7M236 100h7M236 101h7M236 102h7M236 103h7M236 104h7M236 105h7M236 106h7M236 107h7M236 108h7M236 109h7M236 110h7M236 111h7M236 112h7M236 113h7M236 114h7M236 115h7M236 116h7M236 117h7M236 118h7M236 119h7M236 120h7M236 121h7M236 122h7M236 123h7M236 124h7M236 125h7M236 126h7M236 127h7M236 128h7M224 129h7M232 129h11M224 130h7M232 130h11M224 131h7M232 131h7M224 132h15M224 133h15M224 134h15M228 135h7M228 136h7M228 137h7M292 181h8M308 181h8M292 182h8M308 182h8M292 183h8M308 183h8M292 184h8M308 184h8M292 185h8M308 185h8M292 186h8M308 186h8M292 187h8M308 187h8M292 188h8M308 188h8M292 189h24M292 190h24M292 191h24M292 192h24M296 193h16M296 194h16M296 195h16M296 196h16M300 197h8M300 198h8M300 199h8M300 200h8M300 201h8M300 202h8M300 203h8M300 204h8M300 205h8M300 206h8M300 207h8M300 208h8" />
<path stroke="#6ccae1" d="M25 93h37M93 93h10M134 93h10M149 93h6M175 93h7M247 93h6M258 93h6M288 93h6M393 93h6M7 94h17M25 94h37M93 94h10M134 94h10M149 94h6M175 94h7M247 94h6M258 94h6M269 94h6M288 94h6M367 94h58M7 95h17M25 95h37M93 95h10M134 95h10M149 95h6M175 95h7M247 95h6M258 95h6M269 95h6M288 95h6M367 95h58M7 96h17M25 96h37M93 96h10M134 96h10M149 96h6M175 96h7M247 96h6M258 96h6M269 96h6M288 96h6M367 96h58M7 97h17M40 97h7M93 97h6M134 97h10M149 97h6M175 97h7M258 97h6M269 97h6M288 97h6M367 97h58M7 98h17M40 98h7M93 98h6M134 98h10M149 98h6M175 98h7M258 98h6M269 98h6M288 98h6M367 98h58M7 99h17M37 99h13M67 99h58M130 99h14M149 99h6M175 99h7M258 99h6M269 99h10M288 99h6M307 99h58M367 99h58M7 100h17M37 100h13M67 100h58M130 100h14M149 100h6M175 100h7M258 100h6M269 100h10M288 100h6M307 100h58M367 100h58M7 101h17M37 101h13M67 101h58M130 101h14M149 101h6M175 101h7M258 101h6M269 101h10M288 101h6M307 101h58M367 101h58M7 102h17M37 102h13M67 102h58M130 102h14M149 102h6M175 102h7M258 102h6M269 102h10M288 102h6M307 102h58M367 102h58M18 103h6M37 103h13M67 103h58M130 103h7M138 103h6M149 103h6M175 103h7M258 103h6M273 103h6M288 103h6M307 103h58M393 103h6" />
<path stroke="#60bdd9" d="M18 104h6M37 104h13M67 104h58M130 104h7M138 104h6M149 104h6M175 104h7M258 104h6M273 104h6M288 104h6M307 104h58M393 104h6M18 105h6M33 105h21M67 105h58M127 105h10M138 105h6M149 105h6M175 105h7M247 105h58M307 105h58M389 105h14M18 106h6M33 106h21M67 106h58M127 106h10M138 106h6M149 106h6M175 106h7M247 106h58M307 106h58M389 106h14M18 107h6M33 107h21M67 107h58M127 107h10M138 107h6M149 107h6M175 107h7M247 107h58M307 107h58M389 107h14M18 108h6M33 108h6M40 108h7M48 108h6M93 108h6M127 108h6M138 108h6M149 108h6M175 108h7M247 108h58M389 108h6M397 108h6M18 109h6M33 109h6M40 109h7M48 109h6M93 109h6M127 109h6M138 109h6M149 109h6M175 109h7M247 109h58M389 109h6M397 109h6M18 110h6M33 110h6M40 110h7M48 110h6M93 110h6M127 110h6M138 110h6M149 110h6M175 110h7M247 110h58M389 110h6M397 110h6M18 111h6M29 111h10M40 111h7M48 111h10M93 111h6M127 111h6M138 111h6M149 111h6M175 111h7M247 111h58M389 111h6M397 111h6M18 112h6M29 112h10M40 112h7M48 112h10M93 112h6M127 112h6M138 112h6M149 112h6M175 112h7M247 112h58M389 112h6M397 112h6M18 113h6M29 113h10M40 113h7M48 113h10M93 113h6M127 113h6M138 113h6M149 113h6M175 113h7M247 113h58M389 113h6M397 113h6" />
<path stroke="#6ba8c7" d="M220 104h7M220 105h7M220 106h7M220 107h11M220 108h11M220 109h11M224 110h7M224 111h7M224 112h7M224 113h7M224 114h7M224 115h7M224 116h7M228 181h28M228 182h28M228 183h28M228 184h28M228 185h28M228 186h28M228 187h28M228 188h28M228 189h8M228 190h8M228 191h8M228 192h8M228 193h20M228 194h20M228 195h20M228 196h20M228 197h8M228 198h8M228 199h8M228 200h8M228 201h28M228 202h28M228 203h28M228 204h28M228 205h28M228 206h28M228 207h28M228 208h28" />
<path stroke="#55b0d2" d="M18 114h6M29 114h6M40 114h7M52 114h6M93 114h6M138 114h6M149 114h6M175 114h7M254 114h6M288 114h6M389 114h6M397 114h6M18 115h6M29 115h6M40 115h7M52 115h6M93 115h6M138 115h6M149 115h6M175 115h7M254 115h6M288 115h6M389 115h6M397 115h6M18 116h6M25 116h10M40 116h7M52 116h10M93 116h6M138 116h6M149 116h6M175 116h7M254 116h6M269 116h6M288 116h6M385 116h10M397 116h10M18 117h6M25 117h10M40 117h7M52 117h10M93 117h6M138 117h6M149 117h6M175 117h7M254 117h6M269 117h6M288 117h6M385 117h10M397 117h10M18 118h6M25 118h10M40 118h7M52 118h10M93 118h6M138 118h6M149 118h6M175 118h7M254 118h6M269 118h6M288 118h6M385 118h10M397 118h10M18 119h6M25 119h7M40 119h7M55 119h7M93 119h6M138 119h6M149 119h6M175 119h7M254 119h6M269 119h6M288 119h6M385 119h7M400 119h7M18 120h6M25 120h7M40 120h7M55 120h7M93 120h6M138 120h6M149 120h6M175 120h7M254 120h6M269 120h6M288 120h6M385 120h7M400 120h7M18 121h6M25 121h7M40 121h7M55 121h7M93 121h6M138 121h6M149 121h6M175 121h7M254 121h6M269 121h6M288 121h6M385 121h7M400 121h7M18 122h6M25 122h7M40 122h7M55 122h7M93 122h6M138 122h6M149 122h6M175 122h7M254 122h6M269 122h10M288 122h6M385 122h7M400 122h7M18 123h6M25 123h7M40 123h7M55 123h7M93 123h6M138 123h6M149 123h6M175 123h7M254 123h6M269 123h10M288 123h6M385 123h7M400 123h7M18 124h6M25 124h7M40 124h7M55 124h7M93 124h6M138 124h6M149 124h6M175 124h7M254 124h6M269 124h10M288 124h6M385 124h7M400 124h7" />
<path stroke="#4aa2ca" d="M18 125h6M40 125h7M93 125h6M138 125h6M149 125h6M175 125h7M254 125h6M273 125h6M288 125h6M385 125h7M400 125h7M18 126h6M40 126h7M93 126h6M138 126h6M149 126h6M175 126h7M254 126h6M273 126h6M288 126h6M385 126h7M400 126h7M18 127h6M40 127h7M93 127h6M138 127h6M149 127h6M175 127h7M254 127h48M382 127h10M400 127h10M18 128h6M40 128h7M93 128h6M138 128h6M149 128h6M175 128h7M254 128h48M382 128h10M400 128h10M18 129h6M40 129h7M93 129h6M138 129h6M149 129h6M175 129h7M254 129h48M382 129h10M400 129h10M18 130h6M40 130h7M93 130h6M138 130h6M149 130h6M175 130h7M254 130h48M382 130h10M400 130h10M18 131h6M40 131h7M93 131h6M138 131h6M149 131h6M175 131h7M254 131h48M382 131h6M404 131h6M18 132h6M40 132h7M93 132h6M138 132h6M149 132h6M175 132h7M254 132h48M382 132h6M404 132h6M14 133h14M40 133h7M93 133h6M138 133h6M149 133h6M175 133h7M254 133h48M378 133h10M404 133h10M14 134h14M40 134h7M93 134h6M138 134h6M149 134h6M175 134h7M254 134h48M378 134h10M404 134h10M14 135h14M40 135h7M93 135h6M138 135h6M149 135h6M175 135h7M254 135h48M378 135h10M404 135h10" />
<path stroke="#3e95c3" d="M14 136h6M22 136h6M93 136h6M138 136h6M149 136h6M175 136h7M288 136h6M378 136h6M408 136h6M14 137h6M22 137h6M93 137h6M138 137h6M149 137h6M175 137h7M288 137h6M378 137h6M408 137h6M10 138h10M22 138h43M85 138h7M93 138h6M138 138h6M149 138h6M168 138h6M175 138h7M277 138h6M284 138h10M374 138h10M408 138h10M10 139h10M22 139h43M85 139h7M93 139h6M138 139h6M149 139h6M168 139h6M175 139h7M277 139h6M284 139h10M374 139h10M408 139h10M10 140h10M22 140h43M85 140h7M93 140h6M138 140h6M149 140h6M168 140h6M175 140h7M277 140h6M284 140h10M374 140h10M408 140h10M10 141h10M22 141h43M85 141h7M93 141h6M138 141h6M149 141h6M168 141h6M175 141h7M277 141h6M284 141h10M374 141h10M408 141h10M10 142h7M25 142h40M85 142h7M93 142h6M138 142h6M149 142h6M168 142h6M175 142h7M277 142h6M284 142h6M374 142h6M412 142h6M10 143h7M25 143h40M85 143h7M93 143h6M138 143h6M149 143h6M168 143h6M175 143h7M277 143h6M284 143h6M374 143h6M412 143h6M10 144h7M25 144h40M85 144h14M138 144h6M149 144h6M168 144h14M277 144h13M367 144h13M412 144h13M10 145h7M25 145h40M85 145h14M138 145h6M149 145h6M168 145h14M277 145h13M367 145h13M412 145h13M10 146h7M25 146h40M85 146h14M138 146h6M149 146h6M168 146h14M277 146h13M367 146h13M412 146h13" />
<path stroke="#99ffff" d="M36 181h8M56 181h8M68 181h8M84 181h8M100 181h24M132 181h20M320 181h24M356 181h20M384 181h8M400 181h8M36 182h8M56 182h8M68 182h8M84 182h8M100 182h24M132 182h20M320 182h24M356 182h20M384 182h8M400 182h8M36 183h8M56 183h8M68 183h8M84 183h8M100 183h24M132 183h20M320 183h24M356 183h20M384 183h8M400 183h8M36 184h8M56 184h8M68 184h8M84 184h8M100 184h24M132 184h20M320 184h24M356 184h20M384 184h8M400 184h8M36 185h12M52 185h12M68 185h8M84 185h8M96 185h28M128 185h28M320 185h28M352 185h28M384 185h8M400 185h8M36 186h12M52 186h12M68 186h8M84 186h8M96 186h28M128 186h28M320 186h28M352 186h28M384 186h8M400 186h8" />
<path stroke="#80e1ee" d="M36 187h12M52 187h12M68 187h8M84 187h8M96 187h28M128 187h28M320 187h28M352 187h28M384 187h8M400 187h8M36 188h12M52 188h12M68 188h8M84 188h8M96 188h28M128 188h28M320 188h28M352 188h28M384 188h8M400 188h8M36 189h28M68 189h24M96 189h8M128 189h8M148 189h8M320 189h8M340 189h8M352 189h8M372 189h8M384 189h24M36 190h28M68 190h24M96 190h8M128 190h8M148 190h8M320 190h8M340 190h8M352 190h8M372 190h8M384 190h24M36 191h28M68 191h24M96 191h8M128 191h8M148 191h8M320 191h8M340 191h8M352 191h8M372 191h8M384 191h24M36 192h28M68 192h24M96 192h8M128 192h8M148 192h8M320 192h8M340 192h8M352 192h8M372 192h8M384 192h24" />
<path stroke="#66c4dd" d="M36 193h8M48 193h4M56 193h8M72 193h16M96 193h8M108 193h16M128 193h8M148 193h8M320 193h8M340 193h8M352 193h28M388 193h16M36 194h8M48 194h4M56 194h8M72 194h16M96 194h8M108 194h16M128 194h8M148 194h8M320 194h8M340 194h8M352 194h28M388 194h16M36 195h8M48 195h4M56 195h8M72 195h16M96 195h8M108 195h16M128 195h8M148 195h8M320 195h8M340 195h8M352 195h28M388 195h16M36 196h8M48 196h4M56 196h8M72 196h16M96 196h8M108 196h16M128 196h8M148 196h8M320 196h8M340 196h8M352 196h28M388 196h16M36 197h8M56 197h8M76 197h8M96 197h8M116 197h8M128 197h8M148 197h8M320 197h8M340 197h8M352 197h28M392 197h8M36 198h8M56 198h8M76 198h8M96 198h8M116 198h8M128 198h8M148 198h8M320 198h8M340 198h8M352 198h28M392 198h8M36 199h8M56 199h8M76 199h8M96 199h8M116 199h8M128 199h8M148 199h8M320 199h8M340 199h8M352 199h28M392 199h8" />
<path stroke="#4ca6cc" d="M36 200h8M56 200h8M76 200h8M96 200h8M116 200h8M128 200h8M148 200h8M320 200h8M340 200h8M352 200h28M392 200h8M36 201h8M56 201h8M76 201h8M96 201h28M128 201h28M320 201h28M352 201h8M372 201h8M392 201h8M36 202h8M56 202h8M76 202h8M96 202h28M128 202h28M320 202h28M352 202h8M372 202h8M392 202h8M36 203h8M56 203h8M76 203h8M96 203h28M128 203h28M320 203h28M352 203h8M372 203h8M392 203h8M36 204h8M56 204h8M76 204h8M96 204h28M128 204h28M320 204h28M352 204h8M372 204h8M392 204h8M36 205h8M56 205h8M76 205h8M100 205h24M132 205h20M320 205h24M352 205h8M372 205h8M392 205h8" />
</svg>